<?xml version="1.0" encoding="utf-8"?>
<!-- Generator: Adobe Illustrator 15.0.0, SVG Export Plug-In . SVG Version: 6.00 Build 0)  -->
<!DOCTYPE svg PUBLIC "-//W3C//DTD SVG 1.1//EN" "http://www.w3.org/Graphics/SVG/1.1/DTD/svg11.dtd">
<svg version="1.1" xmlns="http://www.w3.org/2000/svg" xmlns:xlink="http://www.w3.org/1999/xlink" x="0px" y="0px" width="128px"
	 height="128px" viewBox="0 0 128 128" enable-background="new 0 0 128 128" xml:space="preserve">
<g id="gemaskeerd" display="none">
	<linearGradient id="SVGID_1_" gradientUnits="userSpaceOnUse" x1="4.882812e-04" y1="4.882812e-04" x2="128.0006" y2="128.0006">
		<stop  offset="0" style="stop-color:#FFFFFF;stop-opacity:0"/>
		<stop  offset="1" style="stop-color:#ABABAB"/>
	</linearGradient>
	<rect fill="url(#SVGID_1_)" width="128" height="128"/>
	<defs>
		<filter id="Adobe_OpacityMaskFilter" filterUnits="userSpaceOnUse" x="32.164" y="23.268" width="82.369" height="101.808">
			<feFlood  style="flood-color:white;flood-opacity:1" result="back"/>
			<feBlend  in="SourceGraphic" in2="back" mode="normal"/>
		</filter>
	</defs>
	
		<mask maskUnits="userSpaceOnUse" x="32.164" y="23.268" width="82.369" height="101.808" id="Bodoni_72_M4__128_1_" display="inline">
		<g filter="url(#Adobe_OpacityMaskFilter)">
			<g id="Masker_4pt">
				<path d="M85.756,106.732c-8.16,0-14.629-3.444-19.226-10.238c-1.964-2.894-3.252-5.75-3.828-8.486
					c-0.55-2.59-1.338-8.876-2.409-19.214c-0.521-5.552-2.244-9.463-5.123-11.644c-2.708-2.048-7.145-3.261-13.208-3.614v43.276
					c0,0.776,0.981,1.322,2.915,1.623c0.464,0.051,2.029,0.149,6.37,0.267c0,0,0.001,0,0.001,0c2.803,0,3.816,1.697,3.816,3.151
					c0,0.772-0.321,3.295-4.447,3.295h-33.84c-4.497,0-5.168-2.064-5.168-3.295c0-2.941,4.125-3.083,6.107-3.151
					c3.934-0.083,5.255-0.521,5.641-0.706l0.08-0.107c0.076-0.299,0.27-1.367,0.27-4.531V13.868c0-4.018-0.482-5.206-0.614-5.455
					c-0.282-0.148-1.558-0.647-6.074-0.753c-0.001,0-0.002,0-0.002,0c-3.667,0-5.55-1.109-5.55-3.296c0-0.574,0.208-3.44,4.304-3.44
					c0.373,0,0.833,0.046,1.478,0.147l19.015,0.429c1.863,0,4.551-0.064,7.944-0.19c3.862-0.259,6.543-0.386,8.139-0.386
					c9.33,0,16.883,2.148,22.451,6.384c5.731,4.366,8.638,10.352,8.638,17.792c0,7.32-2.962,13.438-8.805,18.184
					c-4.058,3.298-9.175,5.64-15.27,6.997C66,52.4,70.882,55.622,73.921,59.902c4.039,5.693,6.631,15.484,7.923,29.934
					c0.879,9.037,4.088,9.922,5.633,10.008c-0.178-0.628-0.266-1.203-0.266-1.734c0-3.146,1.932-5.025,5.168-5.025
					c3.417,0,5.457,2.094,5.457,5.602C97.836,102.356,95.74,106.732,85.756,106.732z M57.479,53.882
					c0.036,0.026,0.07,0.052,0.105,0.079c3.811,2.887,6.061,7.745,6.689,14.44c1.04,10.035,1.829,16.359,2.342,18.779
					c0.469,2.229,1.555,4.606,3.227,7.069c3.416,5.048,7.882,7.802,13.604,8.371c-2.598-1.637-4.884-5.206-5.584-12.414
					c-1.212-13.549-3.635-22.961-7.202-27.99C68.032,58.518,63.611,55.726,57.479,53.882z M91.661,99.669
					c0.27,0.397,0.415,0.854,0.415,1.319c0,0.188-0.02,0.43-0.088,0.693c1.848-0.957,1.848-2.319,1.848-2.996
					c0-1.457-0.422-1.602-1.457-1.602c-1.168,0-1.168,0.279-1.168,1.025C91.211,98.271,91.257,98.736,91.661,99.669z
					 M25.876,101.148h14.658c-2.168-1.289-2.572-3.131-2.572-4.336v-84.96c0-2.861,0.85-4.95,2.527-6.208
					c0.102-0.077,0.208-0.15,0.317-0.221C38.975,5.475,37.444,5.5,36.219,5.5l-10.646-0.24c0.103,0.079,0.196,0.159,0.28,0.239
					c1.301,1.229,1.854,3.731,1.854,8.369v79.489c0,4.155-0.293,5.709-0.808,6.567C26.676,100.4,26.343,100.807,25.876,101.148z
					 M47.328,50.084c0.25,0.041,0.495,0.083,0.738,0.126c-0.011-0.078-0.017-0.15-0.021-0.214
					C47.809,50.028,47.569,50.057,47.328,50.084z M48.171,7.948c-3.687,0-4.921,0.627-5.28,0.896
					c-0.767,0.575-0.928,1.953-0.928,3.008V46.42c7.655-0.148,13.252-1.68,16.652-4.558c3.591-3.042,5.412-8.197,5.412-15.321
					C64.026,13.856,58.988,7.948,48.171,7.948z M55.666,5.026c6.621,2.128,12.361,7.899,12.361,21.514
					c0,8.354-2.297,14.536-6.826,18.374c-0.501,0.424-1.032,0.823-1.594,1.198c4.998-1.247,9.179-3.23,12.502-5.932
					c4.931-4.005,7.327-8.938,7.327-15.08c0-6.211-2.31-10.99-7.061-14.609C68.175,7.295,62.564,5.462,55.666,5.026z"/>
			</g>
		</g>
	</mask>
	<path id="Bodoni_72_M4__128" mask="url(#Bodoni_72_M4__128_1_)" d="M114.533,119.029c0,4.031-3.361,6.047-10.08,6.047
		c-7.488,0-13.346-3.117-17.568-9.359c-1.824-2.686-3.002-5.279-3.527-7.775c-0.529-2.496-1.322-8.832-2.377-19.008
		c-0.576-6.143-2.545-10.488-5.904-13.033c-3.361-2.541-8.834-3.91-16.416-4.104v45.359c0,1.922,1.535,3.121,4.608,3.602
		c0.864,0.096,3.071,0.193,6.624,0.287c1.246,0,1.871,0.385,1.871,1.152c0,0.863-0.816,1.295-2.447,1.295h-1.729
		c-0.863,0-5.04,0-12.527,0c-1.44,0-3.889,0-7.344,0c-3.362,0-5.569,0-6.624,0h-5.616c-2.113,0-3.168-0.432-3.168-1.295
		c0-0.67,1.391-1.055,4.176-1.152c4.511-0.094,6.959-0.67,7.344-1.729c0.383-0.479,0.576-2.352,0.576-5.615V34.212
		c0-3.838-0.409-6.142-1.224-6.912c-0.817-0.768-3.29-1.199-7.416-1.296c-2.401,0-3.601-0.432-3.601-1.296
		c0-0.958,0.768-1.44,2.305-1.44c0.287,0,0.72,0.05,1.296,0.144l19.151,0.432c1.92,0,4.608-0.063,8.064-0.191
		c3.838-0.256,6.527-0.385,8.064-0.385c8.928,0,16.006,1.994,21.24,5.976c5.23,3.985,7.848,9.385,7.848,16.2
		c0,6.721-2.689,12.265-8.064,16.632c-5.377,4.371-12.672,6.938-21.889,7.705c-0.863,0.098-1.344,0.24-1.439,0.434
		c0,0.385,0.48,0.576,1.439,0.576c10.08,1.732,17.016,5.271,20.809,10.613c3.791,5.344,6.312,14.994,7.561,28.953
		c0.768,7.893,3.455,11.84,8.064,11.84c1.439,0,2.16-0.289,2.16-0.865c0-0.094-0.051-0.189-0.145-0.287
		c-0.482-1.055-0.721-1.92-0.721-2.592c0-2.016,1.055-3.023,3.168-3.023C113.381,115.43,114.533,116.631,114.533,119.029z
		 M84.725,46.884c0-13.728-5.953-20.592-17.855-20.592c-3.169,0-5.329,0.432-6.48,1.296c-1.152,0.864-1.729,2.4-1.729,4.608v36.577
		c9.217,0.096,15.863-1.584,19.945-5.042C82.684,60.276,84.725,54.66,84.725,46.884z"/>
	<defs>
		<filter id="Adobe_OpacityMaskFilter_1_" filterUnits="userSpaceOnUse" x="32.164" y="23.268" width="82.369" height="101.808">
			<feFlood  style="flood-color:white;flood-opacity:1" result="back"/>
			<feBlend  in="SourceGraphic" in2="back" mode="normal"/>
		</filter>
	</defs>
	
		<mask maskUnits="userSpaceOnUse" x="32.164" y="23.268" width="82.369" height="101.808" id="Bodoni_72_M8__48_1_" display="inline">
		<g filter="url(#Adobe_OpacityMaskFilter_1_)">
			<path d="M85.756,108.732c-8.864,0-15.891-3.74-20.882-11.117c-2.109-3.107-3.499-6.203-4.129-9.196
				c-0.563-2.656-1.362-9.01-2.441-19.419c-0.468-4.99-1.928-8.427-4.341-10.255c-1.499-1.134-4.41-2.478-10-3.043v40.473
				c0.239,0.084,0.603,0.185,1.135,0.271c0.498,0.05,1.947,0.143,6.158,0.256c3.991,0.027,5.81,2.684,5.81,5.152
				c0,0.542-0.181,5.295-6.447,5.295h-33.84c-6.651,0-7.168-4.053-7.168-5.295c0-4.874,6.05-5.082,8.039-5.15
				c2.019-0.043,3.25-0.182,3.97-0.306c0.046-0.617,0.088-1.578,0.088-3.04V13.868c0-2.006-0.124-3.189-0.235-3.847
				c-0.728-0.137-2.086-0.305-4.5-0.361c-0.001,0-0.002,0-0.003,0c-6.763,0-7.503-3.703-7.503-5.295c0-2.708,1.949-5.44,6.304-5.44
				c0.451,0,0.969,0.047,1.654,0.151l18.884,0.426c1.783-0.001,4.425-0.063,7.766-0.188c3.934-0.262,6.64-0.39,8.271-0.39
				c9.777,0,17.738,2.285,23.662,6.792c6.256,4.765,9.427,11.286,9.427,19.384c0,7.952-3.211,14.592-9.543,19.736
				c-2.952,2.399-6.419,4.317-10.372,5.746c4.313,2.108,7.669,4.834,10.031,8.162c4.25,5.99,6.96,16.102,8.284,30.913
				c0.287,2.954,0.825,5.12,1.606,6.48c0.764-3.09,3.36-5.054,6.937-5.054c4.53,0,7.457,2.983,7.457,7.602
				C99.836,101.706,98.464,108.732,85.756,108.732z M29.3,99.148h7.053c-0.316-0.911-0.39-1.75-0.39-2.336v-84.96
				c0-1.775,0.295-3.205,0.749-4.354C36.542,7.5,36.378,7.5,36.219,7.5l-7.158-0.161c0.447,1.618,0.646,3.731,0.646,6.529v79.489
				C29.707,96.046,29.595,97.844,29.3,99.148z M63.871,58.766c1.251,2.65,2.052,5.806,2.394,9.448
				c1.285,12.398,1.965,16.936,2.308,18.552c0.415,1.977,1.398,4.114,2.924,6.361c1.81,2.674,3.946,4.629,6.448,5.888
				c-0.984-2.17-1.721-4.984-2.074-8.614c-1.181-13.207-3.482-22.29-6.843-27.025C67.778,61.615,66.056,60.077,63.871,58.766z
				 M44.151,10.422c-0.062,0.152-0.188,0.567-0.188,1.431v32.493c6.128-0.341,10.614-1.686,13.36-4.01
				c3.121-2.645,4.704-7.286,4.704-13.795c0-14.707-7.405-16.592-13.855-16.592C45.493,9.948,44.445,10.295,44.151,10.422z
				 M64.773,8.746c3.104,3.696,5.253,9.316,5.253,17.795c0,5.96-1.119,10.917-3.338,14.815c1.52-0.8,2.906-1.709,4.159-2.727
				c4.433-3.602,6.588-8.026,6.588-13.528c0-5.545-2.052-9.803-6.272-13.018C69.333,10.69,67.198,9.577,64.773,8.746z"/>
		</g>
	</mask>
	<path id="Bodoni_72_M8__48" mask="url(#Bodoni_72_M8__48_1_)" d="M114.533,119.029c0,4.031-3.361,6.047-10.08,6.047
		c-7.488,0-13.346-3.117-17.568-9.359c-1.824-2.686-3.002-5.279-3.527-7.775c-0.529-2.496-1.322-8.832-2.377-19.008
		c-0.576-6.143-2.545-10.488-5.904-13.033c-3.361-2.541-8.834-3.91-16.416-4.104v45.359c0,1.922,1.535,3.121,4.608,3.602
		c0.864,0.096,3.071,0.193,6.624,0.287c1.246,0,1.871,0.385,1.871,1.152c0,0.863-0.816,1.295-2.447,1.295h-1.729
		c-0.863,0-5.04,0-12.527,0c-1.44,0-3.889,0-7.344,0c-3.362,0-5.569,0-6.624,0h-5.616c-2.113,0-3.168-0.432-3.168-1.295
		c0-0.67,1.391-1.055,4.176-1.152c4.511-0.094,6.959-0.67,7.344-1.729c0.383-0.479,0.576-2.352,0.576-5.615V34.212
		c0-3.838-0.409-6.142-1.224-6.912c-0.817-0.768-3.29-1.199-7.416-1.296c-2.401,0-3.601-0.432-3.601-1.296
		c0-0.958,0.768-1.44,2.305-1.44c0.287,0,0.72,0.05,1.296,0.144l19.151,0.432c1.92,0,4.608-0.063,8.064-0.191
		c3.838-0.256,6.527-0.385,8.064-0.385c8.928,0,16.006,1.994,21.24,5.976c5.23,3.985,7.848,9.385,7.848,16.2
		c0,6.721-2.689,12.265-8.064,16.632c-5.377,4.371-12.672,6.938-21.889,7.705c-0.863,0.098-1.344,0.24-1.439,0.434
		c0,0.385,0.48,0.576,1.439,0.576c10.08,1.732,17.016,5.271,20.809,10.613c3.791,5.344,6.312,14.994,7.561,28.953
		c0.768,7.893,3.455,11.84,8.064,11.84c1.439,0,2.16-0.289,2.16-0.865c0-0.094-0.051-0.189-0.145-0.287
		c-0.482-1.055-0.721-1.92-0.721-2.592c0-2.016,1.055-3.023,3.168-3.023C113.381,115.43,114.533,116.631,114.533,119.029z
		 M84.725,46.884c0-13.728-5.953-20.592-17.855-20.592c-3.169,0-5.329,0.432-6.48,1.296c-1.152,0.864-1.729,2.4-1.729,4.608v36.577
		c9.217,0.096,15.863-1.584,19.945-5.042C82.684,60.276,84.725,54.66,84.725,46.884z"/>
	<defs>
		<filter id="Adobe_OpacityMaskFilter_2_" filterUnits="userSpaceOnUse" x="32.164" y="23.268" width="82.369" height="101.808">
			<feFlood  style="flood-color:white;flood-opacity:1" result="back"/>
			<feBlend  in="SourceGraphic" in2="back" mode="normal"/>
		</filter>
	</defs>
	
		<mask maskUnits="userSpaceOnUse" x="32.164" y="23.268" width="82.369" height="101.808" id="Bodoni_72_M16__16_1_" display="inline">
		<g filter="url(#Adobe_OpacityMaskFilter_2_)">
			<g id="Masker_16pt">
				<path d="M85.756,112.732c-10.129,0-18.495-4.452-24.195-12.876c-2.4-3.535-3.994-7.109-4.73-10.614
					c-0.376-1.773-1.049-5.776-2.506-19.83c-0.252-2.682-0.931-6.08-2.777-7.479c-0.474-0.358-1.523-0.977-3.584-1.509v32.17
					c0.83,0.032,1.923,0.068,3.363,0.107c6.395,0.062,9.739,4.634,9.739,9.151c0,4.477-3.27,9.295-10.447,9.295h-33.84
					c-8.816,0-11.168-5.843-11.168-9.295c0-2.627,1.16-8.778,11.901-9.147l0.105-0.003c0.03-0.001,0.061-0.002,0.09-0.002V13.868
					c0-0.062,0-0.124,0-0.184c-0.233-0.009-0.482-0.017-0.747-0.023C5.791,13.608,5.467,5.313,5.467,4.364
					c0-4.691,3.539-9.44,10.304-9.44c0.591,0,1.221,0.049,1.99,0.158L36.307-4.5c1.807-0.002,4.35-0.063,7.562-0.182
					c3.991-0.266,6.765-0.395,8.478-0.395c10.672,0,19.448,2.56,26.084,7.609c7.201,5.485,11.005,13.287,11.005,22.567
					c0,9.085-3.812,16.984-11.021,22.841c-1.43,1.162-2.964,2.222-4.599,3.179c1.941,1.583,3.609,3.353,4.997,5.307
					c4.537,6.394,7.445,16.716,8.882,31.532c1.396-0.569,2.974-0.876,4.685-0.876c6.746,0,11.457,4.771,11.457,11.602
					C103.836,101.98,102.532,112.732,85.756,112.732z M47.963,13.949v25.938c3.889-0.67,5.844-1.817,6.775-2.605
					c2.181-1.848,3.289-5.463,3.289-10.742c0-11.629-4.662-12.592-9.855-12.592C48.1,13.948,48.031,13.949,47.963,13.949z"/>
			</g>
		</g>
	</mask>
	<path id="Bodoni_72_M16__16" mask="url(#Bodoni_72_M16__16_1_)" d="M114.533,119.029c0,4.031-3.361,6.047-10.08,6.047
		c-7.488,0-13.346-3.117-17.568-9.359c-1.824-2.686-3.002-5.279-3.527-7.775c-0.529-2.496-1.322-8.832-2.377-19.008
		c-0.576-6.143-2.545-10.488-5.904-13.033c-3.361-2.541-8.834-3.91-16.416-4.104v45.359c0,1.922,1.535,3.121,4.608,3.602
		c0.864,0.096,3.071,0.193,6.624,0.287c1.246,0,1.871,0.385,1.871,1.152c0,0.863-0.816,1.295-2.447,1.295h-1.729
		c-0.863,0-5.04,0-12.527,0c-1.44,0-3.889,0-7.344,0c-3.362,0-5.569,0-6.624,0h-5.616c-2.113,0-3.168-0.432-3.168-1.295
		c0-0.67,1.391-1.055,4.176-1.152c4.511-0.094,6.959-0.67,7.344-1.729c0.383-0.479,0.576-2.352,0.576-5.615V34.212
		c0-3.838-0.409-6.142-1.224-6.912c-0.817-0.768-3.29-1.199-7.416-1.296c-2.401,0-3.601-0.432-3.601-1.296
		c0-0.958,0.768-1.44,2.305-1.44c0.287,0,0.72,0.05,1.296,0.144l19.151,0.432c1.92,0,4.608-0.063,8.064-0.191
		c3.838-0.256,6.527-0.385,8.064-0.385c8.928,0,16.006,1.994,21.24,5.976c5.23,3.985,7.848,9.385,7.848,16.2
		c0,6.721-2.689,12.265-8.064,16.632c-5.377,4.371-12.672,6.938-21.889,7.705c-0.863,0.098-1.344,0.24-1.439,0.434
		c0,0.385,0.48,0.576,1.439,0.576c10.08,1.732,17.016,5.271,20.809,10.613c3.791,5.344,6.312,14.994,7.561,28.953
		c0.768,7.893,3.455,11.84,8.064,11.84c1.439,0,2.16-0.289,2.16-0.865c0-0.094-0.051-0.189-0.145-0.287
		c-0.482-1.055-0.721-1.92-0.721-2.592c0-2.016,1.055-3.023,3.168-3.023C113.381,115.43,114.533,116.631,114.533,119.029z
		 M84.725,46.884c0-13.728-5.953-20.592-17.855-20.592c-3.169,0-5.329,0.432-6.48,1.296c-1.152,0.864-1.729,2.4-1.729,4.608v36.577
		c9.217,0.096,15.863-1.584,19.945-5.042C82.684,60.276,84.725,54.66,84.725,46.884z"/>
</g>
<g id="rsrc-route">
	<g id="wit_reon">
		<path id="Masker_4pt_3_" display="none" fill="#FFFFFF" d="M104.453,127.076c-8.16,0-14.629-3.444-19.226-10.238
			c-1.964-2.894-3.252-5.75-3.828-8.486c-0.55-2.59-1.338-8.876-2.409-19.214c-0.521-5.552-2.243-9.463-5.122-11.644
			c-2.708-2.048-7.146-3.261-13.208-3.614v43.276c0,0.776,0.981,1.322,2.915,1.623c0.464,0.051,2.029,0.149,6.37,0.267
			c0.001,0,0.002,0,0.002,0c2.803,0,3.815,1.697,3.815,3.151c0,0.772-0.32,3.295-4.447,3.295H35.476
			c-4.497,0-5.168-2.064-5.168-3.295c0-2.941,4.125-3.083,6.107-3.151c3.934-0.083,5.255-0.521,5.641-0.706l0.08-0.107
			c0.076-0.299,0.27-1.367,0.27-4.531V34.212c0-4.018-0.482-5.206-0.614-5.455c-0.282-0.148-1.558-0.647-6.074-0.753
			c-0.001,0-0.002,0-0.002,0c-3.667,0-5.55-1.109-5.55-3.296c0-0.574,0.208-3.44,4.304-3.44c0.373,0,0.833,0.046,1.478,0.147
			l19.015,0.429c1.863,0,4.551-0.064,7.944-0.19c3.862-0.259,6.543-0.386,8.138-0.386c9.33,0,16.883,2.148,22.451,6.384
			c5.731,4.366,8.638,10.352,8.638,17.792c0,7.32-2.962,13.438-8.805,18.184c-4.058,3.297-9.175,5.639-15.27,6.997
			c6.639,2.119,11.521,5.341,14.56,9.621c4.039,5.693,6.631,15.484,7.923,29.934c0.879,9.037,4.088,9.922,5.633,10.008
			c-0.178-0.628-0.266-1.203-0.266-1.734c0-3.146,1.932-5.025,5.168-5.025c3.417,0,5.457,2.094,5.457,5.602
			C116.533,122.7,114.438,127.076,104.453,127.076z M76.177,74.226c0.035,0.026,0.07,0.053,0.105,0.079
			c3.811,2.887,6.061,7.745,6.688,14.44c1.04,10.035,1.829,16.359,2.342,18.779c0.469,2.229,1.555,4.606,3.227,7.069
			c3.416,5.048,7.882,7.802,13.604,8.371c-2.598-1.637-4.884-5.206-5.584-12.414c-1.212-13.549-3.635-22.961-7.202-27.99
			C86.729,78.861,82.309,76.069,76.177,74.226z M110.358,120.013c0.27,0.397,0.415,0.854,0.415,1.319c0,0.188-0.02,0.43-0.088,0.693
			c1.848-0.957,1.848-2.319,1.848-2.996c0-1.457-0.422-1.602-1.457-1.602c-1.168,0-1.168,0.279-1.168,1.025
			C109.908,118.615,109.954,119.08,110.358,120.013z M44.574,121.492h14.658c-2.168-1.289-2.572-3.131-2.572-4.336v-84.96
			c0-2.861,0.85-4.95,2.527-6.208c0.102-0.077,0.208-0.15,0.317-0.221c-1.833,0.051-3.363,0.077-4.588,0.077l-10.646-0.24
			c0.103,0.079,0.196,0.159,0.28,0.239c1.301,1.229,1.854,3.731,1.854,8.369v79.489c0,4.155-0.293,5.709-0.808,6.567
			C45.374,120.744,45.041,121.15,44.574,121.492z M66.025,70.428c0.249,0.041,0.495,0.083,0.738,0.127
			c-0.011-0.078-0.018-0.15-0.021-0.214C66.506,70.371,66.267,70.4,66.025,70.428z M66.868,28.292c-3.687,0-4.92,0.627-5.28,0.896
			c-0.767,0.575-0.928,1.953-0.928,3.008v34.567c7.655-0.148,13.252-1.681,16.652-4.558c3.591-3.042,5.411-8.197,5.411-15.321
			C82.724,34.2,77.686,28.292,66.868,28.292z M74.363,25.37c6.62,2.128,12.36,7.899,12.36,21.514c0,8.354-2.297,14.536-6.826,18.374
			c-0.501,0.424-1.032,0.823-1.594,1.197c4.998-1.247,9.179-3.23,12.502-5.931c4.931-4.005,7.327-8.938,7.327-15.08
			c0-6.211-2.31-10.99-7.061-14.609C86.872,27.639,81.262,25.806,74.363,25.37z"/>
		<path id="Masker_8pt" display="none" fill="#FFFFFF" d="M104.453,129.076c-8.864,0-15.891-3.74-20.882-11.117
			c-2.109-3.107-3.499-6.203-4.129-9.196c-0.563-2.656-1.362-9.01-2.441-19.419c-0.468-4.99-1.928-8.428-4.341-10.256
			c-1.499-1.134-4.41-2.478-10-3.043v40.473c0.239,0.084,0.603,0.185,1.135,0.271c0.498,0.05,1.947,0.143,6.158,0.256
			c3.991,0.027,5.81,2.684,5.81,5.152c0,0.542-0.181,5.295-6.447,5.295H35.476c-6.651,0-7.168-4.053-7.168-5.295
			c0-4.874,6.05-5.082,8.039-5.15c2.019-0.043,3.25-0.182,3.97-0.306c0.046-0.617,0.088-1.578,0.088-3.04V34.212
			c0-2.006-0.124-3.189-0.235-3.847c-0.728-0.137-2.086-0.305-4.5-0.361c-0.001,0-0.002,0-0.003,0c-6.763,0-7.503-3.703-7.503-5.295
			c0-2.708,1.949-5.44,6.304-5.44c0.451,0,0.969,0.047,1.654,0.151l18.884,0.426c1.783-0.001,4.425-0.063,7.766-0.188
			c3.933-0.262,6.639-0.39,8.271-0.39c9.777,0,17.738,2.285,23.662,6.792c6.256,4.765,9.427,11.286,9.427,19.384
			c0,7.952-3.211,14.592-9.543,19.736c-2.952,2.398-6.419,4.317-10.372,5.745c4.313,2.108,7.669,4.835,10.031,8.162
			c4.25,5.99,6.96,16.102,8.284,30.913c0.287,2.954,0.825,5.12,1.606,6.48c0.764-3.09,3.36-5.054,6.937-5.054
			c4.53,0,7.457,2.983,7.457,7.602C118.533,122.05,117.161,129.076,104.453,129.076z M47.998,119.492h7.053
			c-0.316-0.911-0.39-1.75-0.39-2.336v-84.96c0-1.775,0.295-3.205,0.749-4.354c-0.169,0.001-0.333,0.001-0.493,0.001l-7.158-0.161
			c0.447,1.618,0.646,3.731,0.646,6.529v79.489C48.405,116.39,48.292,118.188,47.998,119.492z M82.568,79.109
			c1.251,2.649,2.052,5.806,2.394,9.448c1.285,12.398,1.965,16.936,2.308,18.552c0.415,1.977,1.398,4.114,2.924,6.361
			c1.81,2.674,3.946,4.629,6.448,5.888c-0.984-2.17-1.721-4.984-2.074-8.614c-1.181-13.207-3.482-22.29-6.843-27.025
			C86.476,81.959,84.753,80.421,82.568,79.109z M62.849,30.766c-0.062,0.152-0.188,0.567-0.188,1.431v32.493
			c6.128-0.341,10.614-1.686,13.36-4.01c3.12-2.645,4.703-7.286,4.703-13.795c0-14.707-7.404-16.592-13.855-16.592
			C64.19,30.292,63.143,30.639,62.849,30.766z M83.471,29.089c3.104,3.696,5.253,9.316,5.253,17.795
			c0,5.96-1.119,10.917-3.338,14.815c1.52-0.8,2.906-1.709,4.159-2.727c4.433-3.602,6.588-8.026,6.588-13.528
			c0-5.545-2.052-9.803-6.272-13.018C88.03,31.034,85.896,29.92,83.471,29.089z"/>
		<path id="Masker_16pt_1_" fill="#FFFFFF" d="M104.453,133.076c-10.129,0-18.495-4.452-24.194-12.876
			c-2.4-3.535-3.994-7.109-4.73-10.614c-0.377-1.773-1.05-5.776-2.506-19.83c-0.252-2.682-0.931-6.08-2.777-7.479
			c-0.474-0.358-1.523-0.977-3.585-1.509v32.171c0.83,0.032,1.924,0.068,3.363,0.107c6.396,0.062,9.739,4.634,9.739,9.151
			c0,4.477-3.27,9.295-10.447,9.295H35.476c-8.816,0-11.168-5.843-11.168-9.295c0-2.627,1.16-8.778,11.901-9.147l0.105-0.003
			c0.03-0.001,0.061-0.002,0.09-0.002V34.212c0-0.062,0-0.124,0-0.184c-0.233-0.009-0.482-0.017-0.747-0.023
			c-11.169-0.053-11.493-8.348-11.493-9.296c0-4.691,3.539-9.44,10.304-9.44c0.591,0,1.221,0.049,1.99,0.158l18.547,0.418
			c1.807-0.002,4.35-0.063,7.562-0.182c3.991-0.266,6.764-0.395,8.477-0.395c10.672,0,19.448,2.56,26.084,7.609
			c7.201,5.485,11.005,13.287,11.005,22.567c0,9.085-3.812,16.984-11.021,22.841c-1.43,1.162-2.964,2.223-4.599,3.18
			c1.941,1.582,3.609,3.353,4.997,5.307c4.537,6.394,7.445,16.717,8.882,31.532c1.396-0.569,2.974-0.876,4.685-0.876
			c6.746,0,11.457,4.771,11.457,11.602C122.533,122.324,121.229,133.076,104.453,133.076z M66.66,34.293v25.938
			c3.89-0.67,5.844-1.817,6.775-2.605c2.181-1.848,3.288-5.463,3.288-10.742c0-11.629-4.661-12.592-9.855-12.592
			C66.797,34.292,66.729,34.292,66.66,34.293z"/>
	</g>
	<path id="Bodini_72" d="M114.533,119.029c0,4.031-3.361,6.047-10.08,6.047c-7.488,0-13.346-3.117-17.568-9.359
		c-1.824-2.686-3.002-5.279-3.527-7.775c-0.529-2.496-1.322-8.832-2.377-19.008c-0.576-6.143-2.545-10.488-5.904-13.033
		c-3.361-2.541-8.834-3.91-16.416-4.104v45.359c0,1.922,1.535,3.121,4.608,3.602c0.864,0.096,3.071,0.193,6.624,0.287
		c1.246,0,1.871,0.385,1.871,1.152c0,0.863-0.816,1.295-2.447,1.295h-1.729c-0.863,0-5.04,0-12.527,0c-1.44,0-3.889,0-7.344,0
		c-3.362,0-5.569,0-6.624,0h-5.616c-2.113,0-3.168-0.432-3.168-1.295c0-0.67,1.391-1.055,4.176-1.152
		c4.511-0.094,6.959-0.67,7.344-1.729c0.383-0.479,0.576-2.352,0.576-5.615V34.212c0-3.838-0.409-6.142-1.224-6.912
		c-0.817-0.768-3.29-1.199-7.416-1.296c-2.401,0-3.601-0.432-3.601-1.296c0-0.958,0.768-1.44,2.305-1.44
		c0.287,0,0.72,0.05,1.296,0.144l19.151,0.432c1.92,0,4.608-0.063,8.064-0.191c3.838-0.256,6.527-0.385,8.064-0.385
		c8.928,0,16.006,1.994,21.24,5.976c5.23,3.985,7.848,9.385,7.848,16.2c0,6.721-2.689,12.265-8.064,16.632
		c-5.377,4.371-12.672,6.938-21.889,7.705c-0.863,0.098-1.344,0.24-1.439,0.434c0,0.385,0.48,0.576,1.439,0.576
		c10.08,1.732,17.016,5.271,20.809,10.613c3.791,5.344,6.312,14.994,7.561,28.953c0.768,7.893,3.455,11.84,8.064,11.84
		c1.439,0,2.16-0.289,2.16-0.865c0-0.094-0.051-0.189-0.145-0.287c-0.482-1.055-0.721-1.92-0.721-2.592
		c0-2.016,1.055-3.023,3.168-3.023C113.381,115.43,114.533,116.631,114.533,119.029z M84.725,46.884
		c0-13.728-5.953-20.592-17.855-20.592c-3.169,0-5.329,0.432-6.48,1.296c-1.152,0.864-1.729,2.4-1.729,4.608v36.577
		c9.217,0.096,15.863-1.584,19.945-5.042C82.684,60.276,84.725,54.66,84.725,46.884z"/>
	<g id="wit_libo_1_">
		<path id="Masker_4pt_1_" display="none" fill="#FFFFFF" d="M85.756,106.732c-8.16,0-14.629-3.444-19.226-10.238
			c-1.964-2.894-3.252-5.75-3.828-8.486c-0.55-2.59-1.338-8.876-2.409-19.214c-0.521-5.552-2.244-9.463-5.123-11.644
			c-2.708-2.048-7.145-3.261-13.208-3.614v43.276c0,0.776,0.981,1.322,2.915,1.623c0.464,0.051,2.029,0.149,6.37,0.267
			c0,0,0.001,0,0.001,0c2.803,0,3.816,1.697,3.816,3.151c0,0.772-0.321,3.295-4.447,3.295h-33.84c-4.497,0-5.168-2.064-5.168-3.295
			c0-2.941,4.125-3.083,6.107-3.151c3.934-0.083,5.255-0.521,5.641-0.706l0.08-0.107c0.076-0.299,0.27-1.367,0.27-4.531V13.868
			c0-4.018-0.482-5.206-0.614-5.455c-0.282-0.148-1.558-0.647-6.074-0.753c-0.001,0-0.002,0-0.002,0c-3.667,0-5.55-1.109-5.55-3.296
			c0-0.574,0.208-3.44,4.304-3.44c0.373,0,0.833,0.046,1.478,0.147l19.015,0.429c1.863,0,4.551-0.064,7.944-0.19
			c3.862-0.259,6.543-0.386,8.139-0.386c9.33,0,16.883,2.148,22.451,6.384c5.731,4.366,8.638,10.352,8.638,17.792
			c0,7.32-2.962,13.438-8.805,18.184c-4.058,3.298-9.175,5.64-15.27,6.997C66,52.4,70.882,55.622,73.921,59.902
			c4.039,5.693,6.631,15.484,7.923,29.934c0.879,9.037,4.088,9.922,5.633,10.008c-0.178-0.628-0.266-1.203-0.266-1.734
			c0-3.146,1.932-5.025,5.168-5.025c3.417,0,5.457,2.094,5.457,5.602C97.836,102.356,95.74,106.732,85.756,106.732z M57.479,53.882
			c0.036,0.026,0.07,0.052,0.105,0.079c3.811,2.887,6.061,7.745,6.689,14.44c1.04,10.035,1.829,16.359,2.342,18.779
			c0.469,2.229,1.555,4.606,3.227,7.069c3.416,5.048,7.882,7.802,13.604,8.371c-2.598-1.637-4.884-5.206-5.584-12.414
			c-1.212-13.549-3.635-22.961-7.202-27.99C68.032,58.518,63.611,55.726,57.479,53.882z M91.661,99.669
			c0.27,0.397,0.415,0.854,0.415,1.319c0,0.188-0.02,0.43-0.088,0.693c1.848-0.957,1.848-2.319,1.848-2.996
			c0-1.457-0.422-1.602-1.457-1.602c-1.168,0-1.168,0.279-1.168,1.025C91.211,98.271,91.257,98.736,91.661,99.669z M25.876,101.148
			h14.658c-2.168-1.289-2.572-3.131-2.572-4.336v-84.96c0-2.861,0.85-4.95,2.527-6.208c0.102-0.077,0.208-0.15,0.317-0.221
			C38.975,5.475,37.444,5.5,36.219,5.5l-10.646-0.24c0.103,0.079,0.196,0.159,0.28,0.239c1.301,1.229,1.854,3.731,1.854,8.369
			v79.489c0,4.155-0.293,5.709-0.808,6.567C26.676,100.4,26.343,100.807,25.876,101.148z M47.328,50.084
			c0.25,0.041,0.495,0.083,0.738,0.126c-0.011-0.078-0.017-0.15-0.021-0.214C47.809,50.028,47.569,50.057,47.328,50.084z
			 M48.171,7.948c-3.687,0-4.921,0.627-5.28,0.896c-0.767,0.575-0.928,1.953-0.928,3.008V46.42
			c7.655-0.148,13.252-1.68,16.652-4.558c3.591-3.042,5.412-8.197,5.412-15.321C64.026,13.856,58.988,7.948,48.171,7.948z
			 M55.666,5.026c6.621,2.128,12.361,7.899,12.361,21.514c0,8.354-2.297,14.536-6.826,18.374c-0.501,0.424-1.032,0.823-1.594,1.198
			c4.998-1.247,9.179-3.23,12.502-5.932c4.931-4.005,7.327-8.938,7.327-15.08c0-6.211-2.31-10.99-7.061-14.609
			C68.175,7.295,62.564,5.462,55.666,5.026z"/>
		<path id="Masker_8pt_1_" display="none" fill="#FFFFFF" d="M85.756,108.732c-8.864,0-15.891-3.74-20.882-11.117
			c-2.109-3.107-3.499-6.203-4.129-9.196c-0.563-2.656-1.362-9.01-2.441-19.419c-0.468-4.99-1.928-8.427-4.341-10.255
			c-1.499-1.134-4.41-2.478-10-3.043v40.473c0.239,0.084,0.603,0.185,1.135,0.271c0.498,0.05,1.947,0.143,6.158,0.256
			c3.991,0.027,5.81,2.684,5.81,5.152c0,0.542-0.181,5.295-6.447,5.295h-33.84c-6.651,0-7.168-4.053-7.168-5.295
			c0-4.874,6.05-5.082,8.039-5.15c2.019-0.043,3.25-0.182,3.97-0.306c0.046-0.617,0.088-1.578,0.088-3.04V13.868
			c0-2.006-0.124-3.189-0.235-3.847c-0.728-0.137-2.086-0.305-4.5-0.361c-0.001,0-0.002,0-0.003,0c-6.763,0-7.503-3.703-7.503-5.295
			c0-2.708,1.949-5.44,6.304-5.44c0.451,0,0.969,0.047,1.654,0.151l18.884,0.426c1.783-0.001,4.425-0.063,7.766-0.188
			c3.934-0.262,6.64-0.39,8.271-0.39c9.777,0,17.738,2.285,23.662,6.792c6.256,4.765,9.427,11.286,9.427,19.384
			c0,7.952-3.211,14.592-9.543,19.736c-2.952,2.399-6.419,4.317-10.372,5.746c4.313,2.108,7.669,4.834,10.031,8.162
			c4.25,5.99,6.96,16.102,8.284,30.913c0.287,2.954,0.825,5.12,1.606,6.48c0.764-3.09,3.36-5.054,6.937-5.054
			c4.53,0,7.457,2.983,7.457,7.602C99.836,101.706,98.464,108.732,85.756,108.732z M29.3,99.148h7.053
			c-0.316-0.911-0.39-1.75-0.39-2.336v-84.96c0-1.775,0.295-3.205,0.749-4.354C36.542,7.5,36.378,7.5,36.219,7.5l-7.158-0.161
			c0.447,1.618,0.646,3.731,0.646,6.529v79.489C29.707,96.046,29.595,97.844,29.3,99.148z M63.871,58.766
			c1.251,2.65,2.052,5.806,2.394,9.448c1.285,12.398,1.965,16.936,2.308,18.552c0.415,1.977,1.398,4.114,2.924,6.361
			c1.81,2.674,3.946,4.629,6.448,5.888c-0.984-2.17-1.721-4.984-2.074-8.614c-1.181-13.207-3.482-22.29-6.843-27.025
			C67.778,61.615,66.056,60.077,63.871,58.766z M44.151,10.422c-0.062,0.152-0.188,0.567-0.188,1.431v32.493
			c6.128-0.341,10.614-1.686,13.36-4.01c3.121-2.645,4.704-7.286,4.704-13.795c0-14.707-7.405-16.592-13.855-16.592
			C45.493,9.948,44.445,10.295,44.151,10.422z M64.773,8.746c3.104,3.696,5.253,9.316,5.253,17.795
			c0,5.96-1.119,10.917-3.338,14.815c1.52-0.8,2.906-1.709,4.159-2.727c4.433-3.602,6.588-8.026,6.588-13.528
			c0-5.545-2.052-9.803-6.272-13.018C69.333,10.69,67.198,9.577,64.773,8.746z"/>
		<path id="Masker_16pt_2_" fill="#FFFFFF" d="M85.756,112.732c-10.129,0-18.495-4.452-24.195-12.876
			c-2.4-3.535-3.994-7.109-4.73-10.614c-0.376-1.773-1.049-5.776-2.506-19.83c-0.252-2.682-0.931-6.08-2.777-7.479
			c-0.474-0.358-1.523-0.977-3.584-1.509v32.17c0.83,0.032,1.923,0.068,3.363,0.107c6.395,0.062,9.739,4.634,9.739,9.151
			c0,4.477-3.27,9.295-10.447,9.295h-33.84c-8.816,0-11.168-5.843-11.168-9.295c0-2.627,1.16-8.778,11.901-9.147l0.105-0.003
			c0.03-0.001,0.061-0.002,0.09-0.002V13.868c0-0.062,0-0.124,0-0.184c-0.233-0.009-0.482-0.017-0.747-0.023
			C5.791,13.608,5.467,5.313,5.467,4.364c0-4.691,3.539-9.44,10.304-9.44c0.591,0,1.221,0.049,1.99,0.158L36.307-4.5
			c1.807-0.002,4.35-0.063,7.562-0.182c3.991-0.266,6.765-0.395,8.478-0.395c10.672,0,19.448,2.56,26.084,7.609
			c7.201,5.485,11.005,13.287,11.005,22.567c0,9.085-3.812,16.984-11.021,22.841c-1.43,1.162-2.964,2.222-4.599,3.179
			c1.941,1.583,3.609,3.353,4.997,5.307c4.537,6.394,7.445,16.716,8.882,31.532c1.396-0.569,2.974-0.876,4.685-0.876
			c6.746,0,11.457,4.771,11.457,11.602C103.836,101.98,102.532,112.732,85.756,112.732z M47.963,13.949v25.938
			c3.889-0.67,5.844-1.817,6.775-2.605c2.181-1.848,3.289-5.463,3.289-10.742c0-11.629-4.662-12.592-9.855-12.592
			C48.1,13.948,48.031,13.949,47.963,13.949z"/>
	</g>
	<path id="Verticaal_8pt" fill="none" stroke="#000000" stroke-width="8" stroke-miterlimit="10" d="M4,128V0 M124,128V0"/>
	<path id="Bodoni_72_144pt" d="M95.836,98.686c0,4.031-3.361,6.047-10.08,6.047c-7.488,0-13.347-3.119-17.569-9.359
		c-1.824-2.688-3.002-5.279-3.527-7.777c-0.529-2.494-1.322-8.83-2.377-19.008c-0.576-6.142-2.545-10.487-5.904-13.032
		c-3.361-2.542-8.834-3.91-16.415-4.104v45.36c0,1.922,1.534,3.121,4.607,3.6c0.864,0.098,3.071,0.193,6.624,0.289
		c1.246,0,1.871,0.385,1.871,1.152c0,0.863-0.816,1.295-2.447,1.295H48.89c-0.863,0-5.039,0-12.527,0c-1.439,0-3.888,0-7.344,0
		c-3.361,0-5.568,0-6.624,0h-5.616c-2.112,0-3.168-0.432-3.168-1.295c0-0.672,1.391-1.057,4.176-1.152
		c4.512-0.096,6.96-0.672,7.345-1.729c0.382-0.479,0.576-2.352,0.576-5.615V13.868c0-3.838-0.41-6.142-1.225-6.912
		c-0.816-0.768-3.289-1.199-7.416-1.296c-2.4,0-3.6-0.432-3.6-1.296c0-0.958,0.767-1.44,2.304-1.44c0.288,0,0.72,0.05,1.296,0.144
		L36.219,3.5c1.919,0,4.607-0.063,8.063-0.191c3.838-0.256,6.527-0.385,8.064-0.385c8.928,0,16.006,1.994,21.24,5.976
		c5.231,3.985,7.849,9.385,7.849,16.2c0,6.721-2.689,12.265-8.065,16.632c-5.377,4.37-12.672,6.937-21.889,7.704
		c-0.863,0.097-1.344,0.241-1.439,0.434c0,0.385,0.48,0.576,1.439,0.576c10.08,1.732,17.016,5.271,20.809,10.613
		c3.792,5.344,6.313,14.995,7.562,28.954c0.768,7.893,3.455,11.84,8.064,11.84c1.439,0,2.16-0.289,2.16-0.865
		c0-0.094-0.051-0.191-0.145-0.287c-0.482-1.057-0.721-1.92-0.721-2.592c0-2.018,1.055-3.025,3.168-3.025
		C94.684,95.084,95.836,96.287,95.836,98.686z M66.026,26.541c0-13.728-5.953-20.592-17.855-20.592c-3.168,0-5.328,0.432-6.48,1.296
		c-1.151,0.864-1.728,2.4-1.728,4.608v36.576c9.216,0.097,15.862-1.584,19.944-5.04C63.985,39.933,66.026,34.316,66.026,26.541z"/>
	<line id="translation" fill="none" x1="32.309" y1="122.197" x2="13.61" y2="101.854"/>
</g>
</svg>
